<svg width="501" height="134" viewBox="0 0 501 134" fill="none" xmlns="http://www.w3.org/2000/svg">
<path fill-rule="evenodd" clip-rule="evenodd" d="M35 37H95V73H35V37ZM47 61H83V49H47V61Z" fill="#0A080D"/>
<path d="M95 85H35V97H95V85Z" fill="#0A080D"/>
<path d="M119 67.071C119 63.4738 119.734 60.279 121.201 57.4864C122.716 54.6939 124.798 52.5403 127.449 51.0257C130.147 49.4638 133.199 48.6828 136.607 48.6828C139.968 48.6828 142.926 49.4164 145.482 50.8837C148.038 52.351 150.026 54.4335 151.446 57.1314C152.866 59.8293 153.575 62.9532 153.575 66.503V69.6979H127.023C127.165 72.3958 128.159 74.6203 130.005 76.3716C131.898 78.1228 134.241 78.9985 137.033 78.9985C139.447 78.9985 141.364 78.4542 142.784 77.3655C144.251 76.2769 145.411 74.8333 146.263 73.0347L152.724 76.5136C151.304 79.0695 149.363 81.2467 146.902 83.0453C144.488 84.8439 141.151 85.7432 136.891 85.7432C133.389 85.7432 130.265 84.9622 127.52 83.4003C124.822 81.791 122.716 79.5901 121.201 76.7976C119.734 73.9577 119 70.7155 119 67.071ZM145.624 63.6631C145.387 61.1546 144.464 59.1667 142.855 57.6994C141.246 56.1848 139.139 55.4275 136.536 55.4275C133.886 55.4275 131.732 56.1848 130.076 57.6994C128.419 59.1667 127.425 61.1546 127.094 63.6631H145.624Z" fill="#0A080D"/>
<path d="M186.3 79.7794H185.59C182.986 83.7553 178.987 85.7432 173.591 85.7432C170.704 85.7432 168.03 84.9859 165.568 83.4713C163.155 81.9567 161.214 79.8031 159.747 77.0106C158.279 74.1707 157.546 70.9048 157.546 67.213C157.546 63.5212 158.279 60.279 159.747 57.4864C161.214 54.6939 163.155 52.5403 165.568 51.0257C168.03 49.5111 170.704 48.7538 173.591 48.7538C178.987 48.7538 183.034 50.789 185.732 54.8595H186.442V49.7478H194.109V97H186.3V79.7794ZM175.863 78.9985C178.987 78.9985 181.519 77.9572 183.46 75.8746C185.448 73.7447 186.442 70.8575 186.442 67.213C186.442 63.5685 185.448 60.7049 183.46 58.6224C181.519 56.4925 178.987 55.4275 175.863 55.4275C172.739 55.4275 170.207 56.4925 168.266 58.6224C166.326 60.7049 165.355 63.5685 165.355 67.213C165.355 70.8575 166.326 73.7447 168.266 75.8746C170.207 77.9572 172.739 78.9985 175.863 78.9985Z" fill="#0A080D"/>
<path d="M226.067 79.2825H225.357C223.369 83.3056 219.582 85.3172 213.997 85.3172C211.347 85.3172 208.98 84.7256 206.897 83.5423C204.815 82.3117 203.182 80.6077 201.999 78.4305C200.863 76.2059 200.295 73.65 200.295 70.7628V49.7478H208.104V70.3369C208.104 73.1767 208.814 75.3303 210.234 76.7976C211.654 78.2175 213.689 78.9275 216.34 78.9275C219.275 78.9275 221.594 77.9572 223.298 76.0166C225.049 74.0287 225.925 71.2598 225.925 67.71V49.7478H233.663V84.7492H226.067V79.2825Z" fill="#0A080D"/>
<path d="M249.478 84.7492H241.739V49.7478H249.478V84.7492Z" fill="#0A080D"/>
<path d="M265.338 84.7492H257.6V37H265.338V84.7492Z" fill="#0A080D"/>
<path d="M281.199 84.7492H273.46V49.7478H281.199V84.7492Z" fill="#0A080D"/>
<path d="M297.06 54.6465H297.77C300.373 50.7181 304.372 48.7538 309.768 48.7538C312.655 48.7538 315.306 49.5111 317.72 51.0257C320.181 52.5403 322.145 54.6939 323.612 57.4864C325.08 60.279 325.813 63.5212 325.813 67.213C325.813 70.9048 325.08 74.1707 323.612 77.0106C322.145 79.8031 320.181 81.9567 317.72 83.4713C315.306 84.9859 312.655 85.7432 309.768 85.7432C304.372 85.7432 300.325 83.6843 297.628 79.5664H296.918V84.7492H289.321V37H297.06V54.6465ZM307.496 55.4275C304.42 55.4275 301.887 56.4925 299.899 58.6224C297.959 60.7523 296.989 63.6158 296.989 67.213C296.989 70.8102 297.959 73.6737 299.899 75.8036C301.887 77.9335 304.42 78.9985 307.496 78.9985C310.62 78.9985 313.152 77.9572 315.093 75.8746C317.033 73.7447 318.004 70.8575 318.004 67.213C318.004 63.5685 317.033 60.7049 315.093 58.6224C313.152 56.4925 310.62 55.4275 307.496 55.4275Z" fill="#0A080D"/>
<path d="M340.043 54.5755C340.753 52.8243 341.818 51.57 343.237 50.8127C344.657 50.0081 346.527 49.6058 348.846 49.6058H352.893V56.2085H347.497C345.036 56.2085 343.072 56.8711 341.605 58.1964C340.185 59.5217 339.475 61.4622 339.475 64.0181V84.7492H331.736V49.7478H339.333V54.5755H340.043Z" fill="#0A080D"/>
<path d="M365.111 84.7492H357.373V49.7478H365.111V84.7492Z" fill="#0A080D"/>
<path d="M399.005 79.2825H398.295C396.307 83.3056 392.521 85.3172 386.935 85.3172C384.285 85.3172 381.918 84.7256 379.836 83.5423C377.753 82.3117 376.12 80.6077 374.937 78.4305C373.801 76.2059 373.233 73.65 373.233 70.7628V49.7478H381.043V70.3369C381.043 73.1767 381.753 75.3303 383.173 76.7976C384.593 78.2175 386.628 78.9275 389.278 78.9275C392.213 78.9275 394.532 77.9572 396.236 76.0166C397.987 74.0287 398.863 71.2598 398.863 67.71V49.7478H406.602V84.7492H399.005V79.2825Z" fill="#0A080D"/>
<path d="M422.274 54.1496H422.984C424.735 50.789 427.907 49.1088 432.498 49.1088C437.278 49.1088 440.568 51.0494 442.366 54.9305H443.076C444.07 53.0846 445.372 51.6647 446.981 50.6707C448.59 49.6294 450.72 49.1088 453.371 49.1088C456.826 49.1088 459.642 50.1974 461.819 52.3746C464.044 54.5045 465.156 57.5338 465.156 61.4622V84.7492H457.347V61.8882C457.347 59.853 456.779 58.2911 455.643 57.2024C454.507 56.0665 452.945 55.4985 450.957 55.4985C448.732 55.4985 446.981 56.2085 445.703 57.6284C444.425 59.0483 443.786 61.0836 443.786 63.7341V84.7492H435.977V61.8882C435.977 59.853 435.409 58.2911 434.273 57.2024C433.184 56.0665 431.622 55.4985 429.587 55.4985C427.362 55.4985 425.611 56.2085 424.333 57.6284C423.055 59.0483 422.416 61.0836 422.416 63.7341V84.7492H414.678V49.7478H422.274V54.1496Z" fill="#0A080D"/>
<path d="M241.831 37.1315H249.481V43.9781H241.831V37.1315Z" fill="#0A080D"/>
<path d="M273.368 37.1315H281.019V43.9781H273.368V37.1315Z" fill="#0A080D"/>
<path d="M357.467 37.1315H365.118V43.9781H357.467V37.1315Z" fill="#0A080D"/>
</svg>
